<?xml version="1.0" encoding="UTF-8"?>
<svg version="1.1" xmlns="http://www.w3.org/2000/svg" width="250" height="250">
<path d="M0 0 C1.39120471 0.00015906 2.78241534 0.00585033 4.17358398 0.01586914 C4.90463852 0.01728409 5.63569305 0.01869904 6.38890076 0.02015686 C8.73253406 0.02577131 11.07607313 0.03832617 13.41967773 0.05102539 C15.00496282 0.05603853 16.59024939 0.06060176 18.17553711 0.06469727 C22.06945383 0.07574542 25.96329979 0.09301967 29.85717773 0.11352539 C39.1139737 21.35301493 48.21760294 42.65561825 57.25749207 63.98826599 C57.55609634 64.69274368 57.85470062 65.39722137 58.16235352 66.12304688 C58.58608246 67.12970901 58.58608246 67.12970901 59.01837158 68.15670776 C59.57743879 69.46093351 60.1528406 70.75827792 60.74432373 72.04812622 C62.26762872 75.40310496 62.85717773 77.3413719 62.85717773 81.11352539 C48.99717773 81.11352539 35.13717773 81.11352539 20.85717773 81.11352539 C17.00708742 72.86333185 13.23844232 64.56668685 9.85717773 56.11352539 C2.26717773 55.78352539 -5.32282227 55.45352539 -13.14282227 55.11352539 C-14.13282227 58.41352539 -15.12282227 61.71352539 -16.14282227 65.11352539 C-17.17934449 68.00368224 -18.2296091 70.87395336 -19.33032227 73.73852539 C-19.60295898 74.4565332 -19.8755957 75.17454102 -20.15649414 75.91430664 C-20.81550978 77.64855834 -21.47870114 79.38122239 -22.14282227 81.11352539 C-25.44282227 81.11352539 -28.74282227 81.11352539 -32.14282227 81.11352539 C-31.49853695 77.49630677 -30.5432371 74.16393224 -29.30444336 70.70678711 C-28.92669769 69.6473288 -28.54895203 68.58787048 -28.15975952 67.49630737 C-27.54422714 65.7870256 -27.54422714 65.7870256 -26.91625977 64.04321289 C-26.49035553 62.85237091 -26.06445129 61.66152893 -25.62564087 60.43460083 C-24.7210351 57.90722064 -23.81516919 55.38033901 -22.90698242 52.85424805 C-21.54026465 49.05274965 -20.17921963 45.24924337 -18.81860352 41.44555664 C-14.92717225 30.57702556 -11.01982851 19.71402641 -7.05688477 8.87133789 C-6.77130707 8.0845163 -6.48572937 7.2976947 -6.1914978 6.48703003 C-3.85873786 0.13938578 -3.85873786 0.13938578 0 0 Z M-3.14282227 27.11352539 C-4.14887819 29.71549741 -5.14784752 32.31981901 -6.14282227 34.92602539 C-6.42899414 35.66401367 -6.71516602 36.40200195 -7.01000977 37.16235352 C-7.28071289 37.87456055 -7.55141602 38.58676758 -7.83032227 39.32055664 C-8.08168945 39.97515869 -8.33305664 40.62976074 -8.59204102 41.30419922 C-9.28843132 43.27663682 -9.28843132 43.27663682 -9.14282227 46.11352539 C-4.19282227 46.11352539 0.75717773 46.11352539 5.85717773 46.11352539 C3.21717773 39.84352539 0.57717773 33.57352539 -2.14282227 27.11352539 C-2.47282227 27.11352539 -2.80282227 27.11352539 -3.14282227 27.11352539 Z " fill="#F0EBEB" transform="translate(109.142822265625,77.886474609375)"/>
<path d="M0 0 C0.77029541 0.21930176 1.54059082 0.43860352 2.33422852 0.66455078 C10.11527537 3.07236923 16.25996948 6.53623474 23.8125 10.3125 C23.8125 33.7425 23.8125 57.1725 23.8125 81.3125 C19.8125 81.3125 19.8125 81.3125 17.015625 78.9765625 C16.02081156 77.97379055 15.03671376 76.9602966 14.0625 75.9375 C13.55589844 75.42960937 13.04929687 74.92171875 12.52734375 74.3984375 C8.8125 70.59347625 8.8125 70.59347625 8.8125 68.3125 C8.008125 67.99925781 8.008125 67.99925781 7.1875 67.6796875 C3.88839025 65.78052893 1.43920014 63.14872267 -1.1875 60.4375 C-1.70828125 59.90769531 -2.2290625 59.37789063 -2.765625 58.83203125 C-3.77932286 57.80041449 -4.78986585 56.76568599 -5.796875 55.72753906 C-7.02588224 54.47695515 -8.29170202 53.26278163 -9.5625 52.0546875 C-11.1875 50.3125 -11.1875 50.3125 -11.1875 48.3125 C-12.1775 47.9825 -13.1675 47.6525 -14.1875 47.3125 C-14.1875 46.6525 -14.1875 45.9925 -14.1875 45.3125 C-14.826875 45.044375 -15.46625 44.77625 -16.125 44.5 C-18.1875 43.3125 -18.1875 43.3125 -19.1875 40.3125 C-21.18766466 39.10367904 -21.18766466 39.10367904 -23.1875 38.3125 C-23.1875 37.6525 -23.1875 36.9925 -23.1875 36.3125 C-23.74953125 36.0753125 -24.3115625 35.838125 -24.890625 35.59375 C-27.70644042 34.02302303 -29.66705416 32.09778536 -31.9375 29.8125 C-32.73671875 29.0184375 -33.5359375 28.224375 -34.359375 27.40625 C-36.1875 25.3125 -36.1875 25.3125 -36.1875 23.3125 C-36.77015625 23.0546875 -37.3528125 22.796875 -37.953125 22.53125 C-40.3677903 21.21415983 -42.00490177 19.76161616 -43.9375 17.8125 C-44.85789062 16.89984375 -44.85789062 16.89984375 -45.796875 15.96875 C-47.1875 14.3125 -47.1875 14.3125 -47.1875 12.3125 C-48.5075 11.6525 -49.8275 10.9925 -51.1875 10.3125 C-51.1875 9.6525 -51.1875 8.9925 -51.1875 8.3125 C-51.77015625 8.05726562 -52.3528125 7.80203125 -52.953125 7.5390625 C-55.40138223 6.19508913 -57.00493248 4.69439704 -58.9375 2.6875 C-59.55109375 2.05585937 -60.1646875 1.42421875 -60.796875 0.7734375 C-61.48523438 0.05027344 -61.48523438 0.05027344 -62.1875 -0.6875 C-59.87394171 -3.00105829 -59.2202401 -3.01057763 -56.07421875 -3.3203125 C-55.24510986 -3.40442383 -54.41600098 -3.48853516 -53.56176758 -3.57519531 C-52.67513428 -3.65350586 -51.78850098 -3.73181641 -50.875 -3.8125 C-49.51121216 -3.9377002 -49.51121216 -3.9377002 -48.11987305 -4.06542969 C-31.64414509 -5.49746635 -15.90202757 -4.62953085 0 0 Z " fill="#F0EBEB" transform="translate(161.1875,4.6875)"/>
<path d="M0 0 C1.88715729 0.00132935 1.88715729 0.00132935 3.81243896 0.00268555 C26.69805538 0.02152711 49.56361099 0.40959638 72.4375 1.125 C71.5913103 5.25574908 69.73843638 7.46709882 67 10.6875 C64.66025057 13.45538978 62.44874027 16.1081396 60.4375 19.125 C59.7775 19.125 59.1175 19.125 58.4375 19.125 C58.169375 19.723125 57.90125 20.32125 57.625 20.9375 C56.43832594 23.12347854 55.34150887 24.53832594 53.4375 26.125 C52.7775 26.125 52.1175 26.125 51.4375 26.125 C51.4375 26.785 51.4375 27.445 51.4375 28.125 C49.32433587 29.79629339 47.21404723 31.34770177 45 32.875 C44.02885254 33.55151611 44.02885254 33.55151611 43.03808594 34.24169922 C41.74681457 35.13940035 40.45371446 36.03447739 39.15869141 36.92675781 C37.8007438 37.87212048 36.46445281 38.84859027 35.13671875 39.8359375 C30.18104026 43.43103893 24.81091406 45.93074942 19.25 48.4375 C18.09032715 48.9627124 18.09032715 48.9627124 16.90722656 49.49853516 C12.7899054 51.29952998 8.97862866 52.83311879 4.4375 53.125 C1.50108815 51.30722124 -0.35663631 49.38398981 -2.5 46.6875 C-4.21895033 44.55183444 -5.70053439 43.1191588 -7.8125 41.4375 C-8.72 40.674375 -9.6275 39.91125 -10.5625 39.125 C-10.5625 38.465 -10.5625 37.805 -10.5625 37.125 C-11.5525 36.795 -12.5425 36.465 -13.5625 36.125 C-13.5625 35.465 -13.5625 34.805 -13.5625 34.125 C-14.2225 34.125 -14.8825 34.125 -15.5625 34.125 C-16.78882018 32.6666733 -18.01105845 31.20442525 -19.19921875 29.71484375 C-21.07753115 27.52437628 -23.27466572 25.87097879 -25.5625 24.125 C-27.375 22.5 -27.375 22.5 -28.5625 21.125 C-28.5625 20.465 -28.5625 19.805 -28.5625 19.125 C-29.5525 18.795 -30.5425 18.465 -31.5625 18.125 C-33.75 16.1875 -33.75 16.1875 -35.5625 14.125 C-35.5625 13.465 -35.5625 12.805 -35.5625 12.125 C-36.5525 11.795 -37.5425 11.465 -38.5625 11.125 C-38.5625 10.465 -38.5625 9.805 -38.5625 9.125 C-39.5525 8.795 -40.5425 8.465 -41.5625 8.125 C-41.5625 7.465 -41.5625 6.805 -41.5625 6.125 C-42.2225 6.125 -42.8825 6.125 -43.5625 6.125 C-45.1875 4.75 -45.1875 4.75 -46.5625 3.125 C-46.5625 2.465 -46.5625 1.805 -46.5625 1.125 C-31.03767433 0.08089453 -15.55566945 -0.03154328 0 0 Z " fill="#F0EBEB" transform="translate(157.5625,192.875)"/>
<path d="M0 0 C0.6837045 1.32467746 1.34964186 2.65863633 2 4 C2.86625 4.433125 2.86625 4.433125 3.75 4.875 C7.08711916 6.54355958 9.64802342 9.11490872 12 12 C12 12.66 12 13.32 12 14 C12.99 14.33 13.98 14.66 15 15 C15 15.66 15 16.32 15 17 C15.54140625 17.2165625 16.0828125 17.433125 16.640625 17.65625 C19.81645344 19.46499997 22.20728081 21.91723799 24.75 24.5 C25.25660156 24.99886719 25.76320313 25.49773438 26.28515625 26.01171875 C30 29.74658861 30 29.74658861 30 32 C30.99 32 31.98 32 33 32 C34.71875 33.64453125 34.71875 33.64453125 36.5 35.8125 C38.9965172 38.82943973 38.9965172 38.82943973 41.71875 41.63671875 C43 43 43 43 43 45 C43.804375 45.2475 44.60875 45.495 45.4375 45.75 C46.7059375 46.36875 46.7059375 46.36875 48 47 C48.66015625 49.078125 48.66015625 49.078125 49 51 C40.02100881 51.17641597 31.04183716 51.34224517 22.0625 51.5 C21.04892111 51.51781588 21.04892111 51.51781588 20.01486588 51.53599167 C-9.65865758 52.05339169 -39.32207472 52.11389257 -69 52 C-69 47.91544702 -67.35794259 46.31386526 -65 43 C-64.56816406 42.35804687 -64.13632813 41.71609375 -63.69140625 41.0546875 C-62.51564588 39.33116933 -61.26242577 37.66108654 -60 36 C-59.34 36 -58.68 36 -58 36 C-57.34 34.68 -56.68 33.36 -56 32 C-55.34 32 -54.68 32 -54 32 C-53.75507812 31.42507812 -53.51015625 30.85015625 -53.2578125 30.2578125 C-46.1366804 17.47515923 -26.69640953 8.77273011 -14 3 C-13.06929687 2.57589844 -12.13859375 2.15179688 -11.1796875 1.71484375 C-3.71038643 -1.49717347 -3.71038643 -1.49717347 0 0 Z " fill="#F0EBEB" transform="translate(90,7)"/>
<path d="M0 0 C2.89852365 1.31307372 4.98277217 2.72684638 7.234375 4.96875 C8.09482422 5.82533203 8.09482422 5.82533203 8.97265625 6.69921875 C9.85244141 7.59060547 9.85244141 7.59060547 10.75 8.5 C11.35199219 9.09425781 11.95398438 9.68851563 12.57421875 10.30078125 C13.14269531 10.87183594 13.71117188 11.44289062 14.296875 12.03125 C15.07562988 12.81338867 15.07562988 12.81338867 15.87011719 13.61132812 C17 15 17 15 17 17 C17.556875 17.226875 18.11375 17.45375 18.6875 17.6875 C21.65253447 19.3703574 23.65353689 21.53621374 26 24 C26.763125 24.721875 27.52625 25.44375 28.3125 26.1875 C30 28 30 28 30 30 C30.66 30 31.32 30 32 30 C33.4375 31.49609375 33.4375 31.49609375 35 33.4375 C37.14525044 36.15188238 37.14525044 36.15188238 40 38 C40 38.66 40 39.32 40 40 C40.99 40.33 41.98 40.66 43 41 C44.6484375 42.70703125 44.6484375 42.70703125 46.375 44.8125 C49.03319121 47.95297907 51.69718768 50.52289076 55 53 C56.8125 54.625 56.8125 54.625 58 56 C58 56.66 58 57.32 58 58 C58.99 58.33 59.98 58.66 61 59 C63.1875 60.9375 63.1875 60.9375 65 63 C65 63.66 65 64.32 65 65 C66.485 65.495 66.485 65.495 68 66 C68 66.66 68 67.32 68 68 C69.485 68.495 69.485 68.495 71 69 C71 69.66 71 70.32 71 71 C71.59683594 71.2578125 72.19367188 71.515625 72.80859375 71.78125 C75.18085817 73.10058422 76.38413125 74.3874932 78.0625 76.5 C80.00872186 78.93664912 81.33393182 80.22262121 84 82 C83.505 83.485 83.505 83.485 83 85 C76.2964404 85.1025619 69.59308766 85.17194542 62.88891602 85.21972656 C60.61475057 85.23967397 58.34063527 85.26684184 56.06665039 85.30175781 C43.06102683 85.49625581 31.32727332 85.46157945 19 81 C17.61711792 80.52820313 17.61711792 80.52820313 16.20629883 80.046875 C13.84104088 79.20969608 11.5148175 78.31172975 9.1875 77.375 C8.41341797 77.0759375 7.63933594 76.776875 6.84179688 76.46875 C1.2687252 74.2687252 1.2687252 74.2687252 -1 72 C-1.24723816 69.11547852 -1.24723816 69.11547852 -1.24291992 65.37890625 C-1.24481827 64.69907684 -1.24671661 64.01924744 -1.24867249 63.31881714 C-1.25238395 61.06659494 -1.24167092 58.81469365 -1.23046875 56.5625 C-1.22927702 55.00073281 -1.22882377 53.43896489 -1.2290802 51.87719727 C-1.22751469 48.60200522 -1.21922002 45.32692238 -1.20581055 42.05175781 C-1.1888206 37.84822141 -1.18499618 33.64480511 -1.18575573 29.4412384 C-1.18548412 26.21568652 -1.18000438 22.99016103 -1.17275429 19.76461792 C-1.16956644 18.21442871 -1.16759994 16.6642365 -1.16686058 15.11404419 C-1.16469824 12.94967531 -1.15595633 10.7854351 -1.14526367 8.62109375 C-1.14145187 7.3880249 -1.13764008 6.15495605 -1.13371277 4.88452148 C-1 2 -1 2 0 0 Z " fill="#F0EBEB" transform="translate(67,165)"/>
<path d="M0 0 C0.66 0.33 1.32 0.66 2 1 C2 38.95 2 76.9 2 116 C1.01 116.33 0.02 116.66 -1 117 C-1 116.34 -1 115.68 -1 115 C-1.56589844 114.73058594 -2.13179687 114.46117187 -2.71484375 114.18359375 C-5.11014497 112.94295056 -7.31663755 111.55594153 -9.5625 110.0625 C-10.32691406 109.55847656 -11.09132812 109.05445313 -11.87890625 108.53515625 C-13.81238617 107.13578681 -15.45230598 105.81470833 -17 104 C-17 103.34 -17 102.68 -17 102 C-17.99 101.67 -18.98 101.34 -20 101 C-21.60546875 99.44140625 -21.60546875 99.44140625 -23.1875 97.5625 C-23.71730469 96.94503906 -24.24710938 96.32757813 -24.79296875 95.69140625 C-26 94 -26 94 -26 92 C-26.66 92 -27.32 92 -28 92 C-32.5882055 86.59837302 -36.14882127 80.24160088 -39.8125 74.1875 C-40.38979858 73.23701782 -40.38979858 73.23701782 -40.97875977 72.26733398 C-44.14436909 66.96096296 -46.16726867 61.64943972 -48.125 55.8125 C-48.47820313 54.76707031 -48.83140625 53.72164062 -49.1953125 52.64453125 C-50 50 -50 50 -50 48 C-49.34 48 -48.68 48 -48 48 C-48 47.34 -48 46.68 -48 46 C-47.34 46 -46.68 46 -46 46 C-46 45.34 -46 44.68 -46 44 C-44.56201172 42.58764648 -44.56201172 42.58764648 -42.5546875 40.93359375 C-36.97204453 36.18871628 -31.93282267 30.94911361 -26.828125 25.70117188 C-26.10367187 24.96576172 -25.37921875 24.23035156 -24.6328125 23.47265625 C-23.98199707 22.80500244 -23.33118164 22.13734863 -22.66064453 21.44946289 C-21 20 -21 20 -19 20 C-18.7525 19.38125 -18.505 18.7625 -18.25 18.125 C-16.76259631 15.59641373 -15.56321991 15.28160996 -13 14 C-12.31731862 12.67479497 -11.6492959 11.34187818 -11 10 C-10.01 9.67 -9.02 9.34 -8 9 C-8 8.34 -8 7.68 -8 7 C-7.34 7 -6.68 7 -6 7 C-6 6.34 -6 5.68 -6 5 C-5.34 5 -4.68 5 -4 5 C-4 4.34 -4 3.68 -4 3 C-2 1.375 -2 1.375 0 0 Z " fill="#F0EBEB" transform="translate(55,114)"/>
<path d="M0 0 C1.25449951 -0.00459229 2.50899902 -0.00918457 3.80151367 -0.01391602 C12.14472935 -0.00010366 20.37481332 0.42516887 28.6875 1.125 C27.56313746 4.49808761 26.61407267 5.27623097 23.9375 7.5 C18.89207196 11.7173616 14.37014343 16.4416852 9.75080872 21.11299133 C7.18085166 23.70972124 4.60556271 26.30113621 2.0300293 28.89233398 C0.66953391 30.26297377 -0.68917377 31.6353902 -2.04614258 33.00952148 C-4.00919009 34.9966961 -5.9785109 36.97745706 -7.94921875 38.95703125 C-8.55755051 39.57568558 -9.16588226 40.1943399 -9.79264832 40.83174133 C-11.2617888 42.3012751 -12.78265287 43.7187742 -14.3125 45.125 C-14.9725 45.125 -15.6325 45.125 -16.3125 45.125 C-16.56 45.74375 -16.8075 46.3625 -17.0625 47 C-18.51878639 49.47568687 -19.69062506 50.07625002 -22.3125 51.125 C-22.3125 51.785 -22.3125 52.445 -22.3125 53.125 C-24.29510426 54.81232277 -26.2957342 56.47866057 -28.3125 58.125 C-28.6425 58.785 -28.9725 59.445 -29.3125 60.125 C-29.9725 60.125 -30.6325 60.125 -31.3125 60.125 C-31.3125 60.785 -31.3125 61.445 -31.3125 62.125 C-32.640625 63.4296875 -32.640625 63.4296875 -34.5625 65 C-39.07815294 68.81159953 -43.18192916 72.95747727 -47.27441406 77.21240234 C-48.58445774 78.55274345 -49.94478766 79.84355875 -51.3125 81.125 C-51.9725 81.125 -52.6325 81.125 -53.3125 81.125 C-53.6425 82.115 -53.9725 83.105 -54.3125 84.125 C-55.3025 83.795 -56.2925 83.465 -57.3125 83.125 C-60.71515187 55.72178277 -59.1516366 26.69553727 -45.3125 2.125 C-42.84358939 0.89054469 -41.06287706 0.91824854 -38.30078125 0.80859375 C-37.24785889 0.76653809 -36.19493652 0.72448242 -35.11010742 0.68115234 C-33.96002197 0.64199707 -32.80993652 0.6028418 -31.625 0.5625 C-30.43559814 0.5207666 -29.24619629 0.4790332 -28.02075195 0.43603516 C-18.68013822 0.13908448 -9.34483306 0.01735438 0 0 Z " fill="#F0EBEB" transform="translate(58.3125,66.875)"/>
<path d="M0 0 C0.66 0 1.32 0 2 0 C2 0.66 2 1.32 2 2 C2.928125 2.4640625 2.928125 2.4640625 3.875 2.9375 C5.25 3.625 6.625 4.3125 8 5 C8 5.66 8 6.32 8 7 C8.721875 7.226875 9.44375 7.45375 10.1875 7.6875 C13.57685109 9.26919718 15.5424688 11.20114502 18 14 C18.33 14.99 18.66 15.98 19 17 C19.99 17.33 20.98 17.66 22 18 C23.68318083 19.92447599 25.22518476 21.83148693 26.75 23.875 C27.41044312 24.74705078 27.41044312 24.74705078 28.08422852 25.63671875 C32.02481901 30.90326953 35.59883854 36.37049138 39 42 C39.50660156 42.83402344 40.01320312 43.66804688 40.53515625 44.52734375 C45.2218565 52.43849377 48.09506363 59.98639864 50 69 C49.43410156 69.48210937 48.86820313 69.96421875 48.28515625 70.4609375 C47.55167969 71.09257813 46.81820312 71.72421875 46.0625 72.375 C45.33160156 73.00148438 44.60070312 73.62796875 43.84765625 74.2734375 C41.91619094 75.87747714 41.91619094 75.87747714 41 78 C40.34 78 39.68 78 39 78 C39 78.66 39 79.32 39 80 C37.42578125 81.55078125 37.42578125 81.55078125 35.3125 83.3125 C32.03159439 86.06203483 29.01604067 88.96168587 26 92 C25.02058114 92.98485483 24.04108615 93.96963396 23.06152344 94.9543457 C22.54458923 95.4745076 22.02765503 95.99466949 21.49505615 96.53059387 C19.18830852 98.85074783 16.87887261 101.1682184 14.56933594 103.4855957 C13.34840326 104.71160741 12.12836209 105.93850752 10.90917969 107.16625977 C9.14489585 108.94259214 7.37747286 110.71574625 5.609375 112.48828125 C5.0615033 113.04131424 4.51363159 113.59434723 3.94915771 114.16413879 C2.65161433 115.4618765 1.32841394 116.73388058 0 118 C-0.33 118 -0.66 118 -1 118 C-2.20766548 94.07970226 -1.98089133 70.21336881 -1.66339111 46.27355957 C-1.61144857 42.18273296 -1.56830331 38.09183082 -1.52509499 34.00090408 C-1.48246989 30.05311339 -1.43502319 26.10539266 -1.38599777 22.1576767 C-1.36311416 20.27732699 -1.3416031 18.39696007 -1.32149124 16.51657867 C-1.29289976 13.9214443 -1.25796803 11.32647481 -1.22119141 8.73144531 C-1.2138649 7.9577359 -1.20653839 7.18402649 -1.19898987 6.38687134 C-1.114363 1.114363 -1.114363 1.114363 0 0 Z " fill="#F0EBEB" transform="translate(196,22)"/>
<path d="M0 0 C0.99 0.495 0.99 0.495 2 1 C4.04396538 7.13189613 3.30841912 14.26431553 3.35009766 20.69970703 C3.36644564 22.53805385 3.39344435 24.37634301 3.43212891 26.21435547 C3.81646741 44.61247268 1.14603221 68.15518276 -11 83 C-14.13848877 83.7215271 -14.13848877 83.7215271 -17.87988281 83.68115234 C-18.90488388 83.68246658 -18.90488388 83.68246658 -19.95059204 83.68380737 C-22.20261166 83.67963679 -24.45162802 83.63302119 -26.703125 83.5859375 C-28.2668088 83.5747432 -29.83051369 83.56620411 -31.39422607 83.56021118 C-35.50474415 83.53733048 -39.61398479 83.47841621 -43.72399902 83.4119873 C-47.91999022 83.35054695 -52.11618839 83.32319258 -56.3125 83.29296875 C-64.54225212 83.22867009 -72.77096704 83.12630236 -81 83 C-81 82.01 -81 81.02 -81 80 C-80.38125 79.7525 -79.7625 79.505 -79.125 79.25 C-76.55750184 77.73970696 -76.28184271 76.63908792 -75 74 C-72.24222165 70.95192919 -69.83342935 68.56176751 -66 67 C-66 66.34 -66 65.68 -66 65 C-65.34 65 -64.68 65 -64 65 C-64 64.34 -64 63.68 -64 63 C-62.125 60.875 -62.125 60.875 -60 59 C-59.34 59 -58.68 59 -58 59 C-58 58.34 -58 57.68 -58 57 C-55.625 54.375 -55.625 54.375 -53 52 C-52.34 52 -51.68 52 -51 52 C-51 51.34 -51 50.68 -51 50 C-49.42578125 48.484375 -49.42578125 48.484375 -47.3125 46.75 C-44.64650867 44.49924272 -42.28989909 42.29950455 -40.125 39.5625 C-39.073125 38.2940625 -39.073125 38.2940625 -38 37 C-37.34 37 -36.68 37 -36 37 C-36 36.34 -36 35.68 -36 35 C-34.66748047 33.69311523 -34.66748047 33.69311523 -32.7421875 32.12109375 C-29.07439177 29.00370986 -25.63552153 25.7110631 -22.2578125 22.28515625 C-21.75916687 21.78084076 -21.26052124 21.27652527 -20.74676514 20.75692749 C-18.67299475 18.65611152 -16.60354268 16.55112889 -14.53808594 14.44213867 C-13.01146331 12.88550349 -11.47882953 11.33499536 -9.9453125 9.78515625 C-9.04312988 8.86613525 -8.14094727 7.94711426 -7.21142578 7.00024414 C-5 5 -5 5 -3 5 C-2.5359375 4.0409375 -2.5359375 4.0409375 -2.0625 3.0625 C-1 1 -1 1 0 0 Z " fill="#F0EBEB" transform="translate(247,102)"/>
<path d="" fill="#F0EBEB" transform="translate(0,0)"/>
</svg>
